<?xml version="1.0" standalone="no"?>
<!DOCTYPE svg PUBLIC "-//W3C//DTD SVG 1.1//EN" "http://www.w3.org/Graphics/SVG/1.1/DTD/svg11.dtd" >
<svg xmlns="http://www.w3.org/2000/svg">
<metadata>Generated by IcoMoon</metadata>
<defs>
<font id="icomoon" horiz-adv-x="1024">
<font-face units-per-em="1024" ascent="960" descent="-64" />
<missing-glyph horiz-adv-x="1024" />
<glyph unicode="&#x20;" horiz-adv-x="512" d="" />
<glyph unicode="&#xe900;" glyph-name="at-sign" d="M322.127 853.774c91.409 42.772 194.579 53.428 292.802 30.242s185.737-78.858 248.367-157.994c62.63-79.136 96.704-177.1 96.704-278.021v-42.667c0-39.607-15.735-77.589-43.738-105.596-28.006-28.006-65.988-43.738-105.596-43.738s-77.589 15.731-105.596 43.738c-13.171 13.171-23.625 28.548-31.006 45.265-34.078-53.508-93.926-89.003-162.065-89.003-106.039 0-192 85.961-192 192s85.961 192 192 192c60.314 0 114.133-27.811 149.333-71.31v49.977c0 11.782 9.553 21.333 21.333 21.333s21.333-9.551 21.333-21.333v-213.333c0-28.288 11.238-55.42 31.241-75.426 20.006-20.002 47.138-31.241 75.426-31.241s55.42 11.238 75.426 31.241c20.002 20.006 31.241 47.138 31.241 75.426v42.667c0 91.309-30.831 179.944-87.497 251.543s-135.842 121.969-224.713 142.947c-88.866 20.979-182.211 11.337-264.914-27.362s-149.917-104.188-190.751-185.858c-40.835-81.67-52.898-174.734-34.236-264.116s66.958-169.843 137.061-228.348c70.103-58.509 157.906-91.631 249.186-94.003 91.277-2.372 180.681 26.146 253.73 80.93 9.425 7.070 22.797 5.158 29.867-4.267s5.158-22.797-4.267-29.867c-80.738-60.553-179.554-92.070-280.439-89.451-100.887 2.624-197.933 39.232-275.415 103.898s-130.861 153.596-151.488 252.386c-20.627 98.79-7.294 201.652 37.839 291.919s119.422 162.65 210.831 205.422zM661.333 448c0 82.475-66.859 149.333-149.333 149.333s-149.333-66.859-149.333-149.333c0-82.475 66.859-149.333 149.333-149.333s149.333 66.859 149.333 149.333z" />
<glyph unicode="&#xe901;" glyph-name="message-circle" d="M273.637 775.93c78.079 56.891 173.911 84.024 270.222 76.51 96.316-7.514 186.778-49.181 255.091-117.492 68.309-68.311 109.978-158.775 117.491-255.089 7.514-96.311-19.622-192.145-76.51-270.221-56.892-78.080-139.802-133.274-233.783-155.631-91.021-21.653-186.631-11.136-270.649 29.602l-243.317-82.479c-7.69-2.607-16.192-0.623-21.934 5.116-5.742 5.743-7.726 14.246-5.119 21.935l82.48 243.319c-40.738 84.015-51.257 179.627-29.602 270.648 22.359 93.984 77.551 176.89 155.63 233.781zM540.54 809.903c-86.174 6.723-171.917-17.554-241.777-68.457s-119.242-125.082-139.248-209.171c-20.006-84.092-9.32-172.561 30.133-249.472 2.634-5.137 3.075-11.119 1.222-16.585l-71.46-210.807 210.807 71.458c5.466 1.856 11.45 1.412 16.586-1.22 76.909-39.454 165.38-50.138 249.472-30.135 84.087 20.006 158.268 69.389 209.169 139.251 50.906 69.858 75.183 155.601 68.459 241.775-6.724 86.178-44.002 167.119-105.122 228.239-61.124 61.12-142.063 98.401-228.241 105.124z" />
<glyph unicode="&#xe902;" glyph-name="arrow-right" d="M496.913 761.751c8.333 8.332 21.841 8.332 30.174 0l298.667-298.665c8.329-8.333 8.329-21.841 0-30.174l-298.667-298.667c-8.333-8.329-21.841-8.329-30.174 0-8.329 8.333-8.329 21.841 0 30.174l262.251 262.246h-545.83c-11.782 0-21.333 9.553-21.333 21.333s9.551 21.333 21.333 21.333h545.83l-262.251 262.249c-8.329 8.331-8.329 21.839 0 30.17z" />
<glyph unicode="&#xe903;" glyph-name="check" d="M868.42 719.085c8.329-8.331 8.329-21.839 0-30.17l-469.335-469.335c-8.331-8.329-21.839-8.329-30.17 0l-213.333 213.333c-8.332 8.333-8.332 21.841 0 30.174 8.331 8.329 21.839 8.329 30.17 0l198.249-198.251 454.246 454.249c8.333 8.332 21.841 8.332 30.174 0z" />
<glyph unicode="&#xe904;" glyph-name="chevron-down" d="M240.915 591.085c8.331 8.332 21.839 8.332 30.17 0l240.915-240.915 240.913 240.915c8.333 8.332 21.841 8.332 30.174 0 8.329-8.331 8.329-21.839 0-30.17l-256-256.002c-8.333-8.329-21.841-8.329-30.174 0l-255.998 256.002c-8.332 8.331-8.332 21.839 0 30.17z" />
<glyph unicode="&#xe905;" glyph-name="chevron-left" d="M655.087 719.085c8.329-8.331 8.329-21.839 0-30.17l-240.917-240.915 240.917-240.913c8.329-8.333 8.329-21.841 0-30.174-8.333-8.329-21.841-8.329-30.174 0l-255.998 256c-8.332 8.333-8.332 21.841 0 30.174l255.998 255.998c8.333 8.332 21.841 8.332 30.174 0z" />
<glyph unicode="&#xe906;" glyph-name="chevron-right" d="M368.915 719.085c8.331 8.332 21.839 8.332 30.17 0l256.002-255.998c8.329-8.333 8.329-21.841 0-30.174l-256.002-256c-8.331-8.329-21.839-8.329-30.17 0-8.332 8.333-8.332 21.841 0 30.174l240.915 240.913-240.915 240.915c-8.332 8.331-8.332 21.839 0 30.17z" />
<glyph unicode="&#xe907;" glyph-name="chevron-up" d="M496.913 591.085c8.333 8.332 21.841 8.332 30.174 0l256-255.998c8.329-8.333 8.329-21.841 0-30.174-8.333-8.329-21.841-8.329-30.174 0l-240.913 240.917-240.915-240.917c-8.331-8.329-21.839-8.329-30.17 0-8.332 8.333-8.332 21.841 0 30.174l255.998 255.998z" />
<glyph unicode="&#xe908;" glyph-name="copy" d="M170.667 853.333c-35.151 0-64-28.849-64-64v-426.667c0-35.153 28.849-64 64-64 11.782 0 21.333-9.553 21.333-21.333s-9.551-21.333-21.333-21.333c-58.715 0-106.667 47.953-106.667 106.667v426.667c0 58.715 47.951 106.667 106.667 106.667h426.667c58.714 0 106.667-47.951 106.667-106.667 0-11.782-9.553-21.333-21.333-21.333s-21.333 9.551-21.333 21.333c0 35.151-28.847 64-64 64h-426.667zM426.667 597.333c-35.346 0-64-28.654-64-64v-426.667c0-35.345 28.654-64 64-64h426.667c35.345 0 64 28.655 64 64v426.667c0 35.346-28.655 64-64 64h-426.667zM320 533.333c0 58.91 47.756 106.667 106.667 106.667h426.667c58.91 0 106.667-47.756 106.667-106.667v-426.667c0-58.91-47.757-106.667-106.667-106.667h-426.667c-58.91 0-106.667 47.757-106.667 106.667v426.667z" />
<glyph unicode="&#xe909;" glyph-name="copyright" d="M512 853.333c-223.86 0-405.333-181.474-405.333-405.333s181.474-405.333 405.333-405.333c223.859 0 405.333 181.474 405.333 405.333s-181.474 405.333-405.333 405.333zM64 448c0 247.424 200.576 448 448 448s448-200.576 448-448c0-247.424-200.576-448-448-448s-448 200.576-448 448zM541.205 594.476c-28.962 5.749-58.978 2.782-86.255-8.526-27.281-11.308-50.592-30.448-66.994-55.002s-25.155-53.419-25.155-82.948c0-29.53 8.754-58.394 25.155-82.948s39.713-43.695 66.994-55.002c27.277-11.307 57.293-14.276 86.255-8.525 28.966 5.747 55.573 19.955 76.463 40.823 8.337 8.324 21.845 8.316 30.174-0.017 8.324-8.337 8.316-21.845-0.017-30.174-26.863-26.829-61.073-45.094-98.313-52.484s-75.831-3.575-110.903 10.961c-35.070 14.541-65.044 39.147-86.132 70.72-21.088 31.569-32.343 68.681-32.343 106.645s11.255 75.076 32.343 106.647c21.088 31.569 51.061 56.179 86.132 70.717s73.664 18.353 110.903 10.962 71.45-25.656 98.313-52.486c8.333-8.326 8.341-21.834 0.017-30.17-8.329-8.336-21.837-8.343-30.174-0.017-20.89 20.868-47.497 35.074-76.463 40.823z" />
<glyph unicode="&#xe90a;" glyph-name="send-horizontal" d="M113.852 847.967c-6.396-5.668-8.793-14.606-6.090-22.713l125.751-377.254-125.751-377.254c-2.703-8.107-0.306-17.045 6.090-22.711 6.396-5.67 15.557-6.972 23.281-3.315l810.665 384c7.454 3.529 12.203 11.038 12.203 19.281s-4.749 15.753-12.203 19.281l-810.665 383.999c-7.724 3.658-16.884 2.355-23.281-3.313zM271.376 426.667h572.421l-679.75-321.984 107.329 321.984zM843.797 469.333h-572.421l-107.329 321.986 679.75-321.986z" />
<glyph unicode="&#xe90b;" glyph-name="x" d="M981.376-5.862l-391.031 496.623 280.751 351.802c6.089 7.62 4.86 18.741-2.675 24.874-7.565 6.133-18.607 4.925-24.695-2.695l-275.767-345.515-273.984 347.931c-2.153 2.757-5.443 4.337-8.949 4.337h-185.721c-9.533 0-14.854-11.059-8.98-18.586l367.75-472.182-300.923-376.307c-6.089-7.62-4.859-18.739 2.676-24.87 3.229-2.637 7.135-3.904 10.979-3.904 5.136 0 10.241 2.261 13.685 6.596l295.509 370.3 290.223-372.655c2.155-2.786 5.474-4.399 8.981-4.399h193.225c9.532 0 14.882 11.093 8.947 18.65zM790.921 10.867l-642.719 825.253h125.567l649.79-825.253h-132.638z" />
<glyph unicode="&#xe90c;" glyph-name="facebook" d="M474.065 827.268c44.011 44.009 103.697 68.732 165.935 68.732h128c11.78 0 21.333-9.551 21.333-21.333v-170.667c0-11.782-9.553-21.333-21.333-21.333h-128c-5.658 0-11.085-2.248-15.087-6.249-3.998-4.001-6.246-9.427-6.246-15.085v-106.667h149.333c6.571 0 12.77-3.027 16.815-8.204s5.474-11.93 3.883-18.304l-42.667-170.667c-2.377-9.498-10.91-16.158-20.698-16.158h-106.667v-320c0-11.78-9.553-21.333-21.333-21.333h-170.667c-11.782 0-21.333 9.553-21.333 21.333v320h-106.667c-11.782 0-21.333 9.553-21.333 21.333v170.667c0 11.782 9.551 21.333 21.333 21.333h106.667v106.667c0 62.237 24.725 121.926 68.732 165.935zM640 853.333c-50.923 0-99.759-20.229-135.765-56.236s-56.235-84.843-56.235-135.764v-128c0-11.78-9.553-21.333-21.333-21.333h-106.667v-128h106.667c11.78 0 21.333-9.553 21.333-21.333v-320h128v320c0 11.78 9.553 21.333 21.333 21.333h111.343l32 128h-143.343c-11.78 0-21.333 9.553-21.333 21.333v128c0 16.974 6.741 33.253 18.743 45.255s28.284 18.745 45.257 18.745h106.667v128h-106.667z" />
<glyph unicode="&#xe90e;" glyph-name="github" d="M213.333 896v-21.333c0 21.333-0.016 21.333 0 21.333h0.132l0.148-0.001 0.344-0.006 0.874-0.031c0.666-0.032 1.497-0.086 2.493-0.179 1.992-0.187 4.64-0.529 7.94-1.147 6.605-1.239 15.794-3.581 27.559-7.993 22.158-8.309 53.403-23.939 93.747-53.318 109.301 19.569 221.557 19.569 330.857 0 40.346 29.379 71.59 45.009 93.747 53.318 11.767 4.412 20.958 6.755 27.563 7.993 3.298 0.619 5.948 0.96 7.94 1.147 0.994 0.093 1.826 0.148 2.492 0.179l0.875 0.031 0.341 0.006 0.218 0.002c0.017 0 0.064 0 0.064-21.333v21.333c9.839 0 18.402-6.728 20.727-16.287 11.994-49.252 12.71-100.519 2.15-150.013 30.127-45.704 44.48-99.645 41.122-154.39-0.358-148.879-116.493-237.711-239.403-252.956 21.645-39.94 30.903-85.76 26.069-131.507v-169.515c0-11.78-9.553-21.333-21.333-21.333s-21.333 9.553-21.333 21.333v170.667c0 0.785 0.043 1.574 0.132 2.355 5.316 47.881-8.414 95.932-38.225 133.777-5.056 6.421-5.999 15.164-2.432 22.515s11.021 12.019 19.191 12.019c120.026 0 234.667 79.258 234.667 213.333 0 0.454 0.013 0.909 0.043 1.362 3.102 48.442-10.453 96.051-38.724 135.555-3.614 5.051-4.847 11.427-3.379 17.463 9.51 39.067 10.901 79.584 4.169 119.074-2.398-0.762-5.047-1.673-7.949-2.762-19.145-7.179-49.378-22.107-90.692-53.092-4.796-3.596-10.88-5.009-16.768-3.894-110.020 20.837-223.377 20.837-333.396 0-5.888-1.115-11.975 0.298-16.77 3.894-41.313 30.985-71.547 45.913-90.691 53.092-3.026 1.135-5.776 2.076-8.25 2.857-7.25-39.407-5.789-79.836 4.384-118.831 1.6-6.133 0.39-12.661-3.303-17.813-28.192-39.333-41.875-87.224-38.718-135.514 0.030-0.463 0.045-0.927 0.045-1.391 0-134.076 114.641-213.333 234.667-213.333 8.192 0 15.659-4.689 19.217-12.066 3.558-7.381 2.577-16.145-2.526-22.554-14.916-18.739-25.966-40.107-32.433-62.929-6.487-22.895-8.407-46.985-5.727-70.724 0.090-0.794 0.135-1.596 0.135-2.394v-170.667c0-11.78-9.551-21.333-21.333-21.333s-21.333 9.553-21.333 21.333v139.332c-37.341-12.813-69.258-16.179-97.3-12.484-35.434 4.672-62.313 20.305-84.197 37.837-10.825 8.67-20.585 17.937-29.417 26.492-1.425 1.382-2.819 2.735-4.187 4.066-7.336 7.13-13.923 13.534-20.576 19.285-15.756 13.619-28.117 20.139-41.655 20.139-11.782 0-21.333 9.553-21.333 21.333s9.551 21.333 21.333 21.333c29.128 0 51.38-14.814 69.558-30.528 7.684-6.643 15.313-14.063 22.621-21.167 1.32-1.284 2.63-2.56 3.927-3.814 8.716-8.444 17.257-16.512 26.405-23.842 18.063-14.468 37.824-25.502 63.096-28.83 22.799-3.008 51.975 0.013 90.617 15.236-0.996 23.906 1.771 47.923 8.317 71.027 4.506 15.906 10.79 31.198 18.677 45.628-122.837 15.309-238.857 104.124-239.217 252.929-3.416 54.58 11.029 108.702 41.012 154.237-11.325 49.655-10.544 101.102 2.345 150.509 2.451 9.394 10.935 15.948 20.643 15.948z" />
<glyph unicode="&#xe90f;" glyph-name="globe" d="M107.218 469.333h213.137c4.642 139.299 54.631 273.012 141.904 380.978-193.468-23.674-344.809-183.661-355.041-380.978zM512 843.099c-91.364-103.59-144.023-235.698-148.953-373.766h297.906c-4.932 138.068-57.591 270.176-148.954 373.766zM660.954 426.667h-297.906c4.93-138.069 57.588-270.174 148.953-373.764 91.362 103.59 144.021 235.695 148.954 373.764zM462.259 45.687c-87.273 107.968-137.262 241.681-141.904 380.979h-213.137c10.231-197.316 161.573-357.303 355.041-380.979zM561.741 45.687c87.275 107.968 137.263 241.681 141.905 380.979h213.137c-10.231-197.316-161.574-357.303-355.042-380.979zM916.783 469.333h-213.137c-4.642 139.299-54.63 273.012-141.905 380.978 193.468-23.674 344.811-183.661 355.042-380.978zM64 448c0 247.424 200.576 448 448 448s448-200.576 448-448c0-247.424-200.576-448-448-448s-448 200.576-448 448z" />
<glyph unicode="&#xe910;" glyph-name="instagram" d="M298.667 853.333c-106.039 0-192-85.961-192-192v-426.667c0-106.039 85.961-192 192-192h426.667c106.039 0 192 85.961 192 192v426.667c0 106.039-85.961 192-192 192h-426.667zM64 661.333c0 129.603 105.064 234.667 234.667 234.667h426.667c129.604 0 234.667-105.064 234.667-234.667v-426.667c0-129.604-105.062-234.667-234.667-234.667h-426.667c-129.603 0-234.667 105.062-234.667 234.667v426.667zM725.333 682.667c0 11.782 9.553 21.333 21.333 21.333h0.427c11.78 0 21.333-9.551 21.333-21.333s-9.553-21.333-21.333-21.333h-0.427c-11.78 0-21.333 9.551-21.333 21.333zM535.753 597.564c-31.074 4.607-62.805-0.7-90.684-15.166-27.882-14.467-50.491-37.356-64.613-65.414-14.121-28.053-19.037-59.853-14.047-90.863s19.632-59.661 41.842-81.869c22.208-22.212 50.859-36.851 81.869-41.843 31.010-4.988 62.81-0.073 90.863 14.046 28.058 14.123 50.948 36.732 65.412 64.614 14.468 27.878 19.776 59.61 15.168 90.684-4.698 31.693-19.469 61.035-42.125 83.688-22.652 22.656-51.994 37.424-83.686 42.124zM425.417 620.27c35.844 18.6 76.646 25.423 116.591 19.5 40.751-6.042 78.473-25.030 107.601-54.159s48.119-66.852 54.161-107.603c5.922-39.945-0.9-80.747-19.499-116.591-18.603-35.844-48.030-64.913-84.105-83.072-36.070-18.155-76.954-24.478-116.821-18.061-39.872 6.417-76.707 25.242-105.263 53.798s-47.381 65.391-53.797 105.263c-6.416 39.868-0.096 80.751 18.060 116.822 18.156 36.073 47.225 65.502 83.072 84.102z" />
<glyph unicode="&#xe912;" glyph-name="linkedin" d="M170.667 853.333c-35.346 0-64-28.654-64-64s28.654-64 64-64c35.346 0 64 28.654 64 64s-28.654 64-64 64zM64 789.333c0 58.91 47.756 106.667 106.667 106.667s106.667-47.756 106.667-106.667c0-58.91-47.756-106.667-106.667-106.667s-106.667 47.756-106.667 106.667zM682.667 597.333c-62.238 0-121.924-24.724-165.935-68.732-44.006-44.011-68.732-103.697-68.732-165.935v-277.333h128v277.333c0 28.288 11.238 55.42 31.241 75.426 20.006 20.002 47.138 31.241 75.426 31.241s55.42-11.238 75.426-31.241c20.002-20.006 31.241-47.138 31.241-75.426v-277.333h128v277.333c0 62.238-24.725 121.924-68.732 165.935-44.011 44.008-103.697 68.732-165.935 68.732zM486.562 558.771c52.011 52.010 122.551 81.229 196.105 81.229s144.094-29.219 196.105-81.229c52.011-52.010 81.229-122.551 81.229-196.104v-298.667c0-11.78-9.553-21.333-21.333-21.333h-170.667c-11.78 0-21.333 9.553-21.333 21.333v298.667c0 16.973-6.741 33.254-18.743 45.257s-28.284 18.743-45.257 18.743c-16.973 0-33.254-6.741-45.257-18.743s-18.743-28.284-18.743-45.257v-298.667c0-11.78-9.553-21.333-21.333-21.333h-170.667c-11.782 0-21.333 9.553-21.333 21.333v298.667c0 73.553 29.218 144.094 81.229 196.104zM64 576c0 11.782 9.551 21.333 21.333 21.333h170.667c11.782 0 21.333-9.551 21.333-21.333v-512c0-11.78-9.551-21.333-21.333-21.333h-170.667c-11.782 0-21.333 9.553-21.333 21.333v512zM106.667 554.667v-469.333h128v469.333h-128z" />
<glyph unicode="&#xe913;" glyph-name="list" d="M917.333 192c0-11.78-9.553-21.333-21.333-21.333h-0.427c-11.78 0-21.333 9.553-21.333 21.333s9.553 21.333 21.333 21.333h0.427c11.78 0 21.333-9.553 21.333-21.333zM704 192c0-11.78-9.553-21.333-21.333-21.333h-554.667c-11.782 0-21.333 9.553-21.333 21.333s9.551 21.333 21.333 21.333h554.667c11.78 0 21.333-9.553 21.333-21.333zM917.333 448c0-11.78-9.553-21.333-21.333-21.333h-0.427c-11.78 0-21.333 9.553-21.333 21.333s9.553 21.333 21.333 21.333h0.427c11.78 0 21.333-9.553 21.333-21.333zM704 448c0-11.78-9.553-21.333-21.333-21.333h-554.667c-11.782 0-21.333 9.553-21.333 21.333s9.551 21.333 21.333 21.333h554.667c11.78 0 21.333-9.553 21.333-21.333zM917.333 704c0-11.782-9.553-21.333-21.333-21.333h-0.427c-11.78 0-21.333 9.551-21.333 21.333s9.553 21.333 21.333 21.333h0.427c11.78 0 21.333-9.551 21.333-21.333zM704 704c0-11.782-9.553-21.333-21.333-21.333h-554.667c-11.782 0-21.333 9.551-21.333 21.333s9.551 21.333 21.333 21.333h554.667c11.78 0 21.333-9.551 21.333-21.333z" />
<glyph unicode="&#xe914;" glyph-name="mail" d="M170.667 768h682.667c35.345 0 64-28.654 64-64v-30.947l-372.766-236.872c-9.762-6.106-21.047-9.344-32.567-9.344s-22.805 3.238-32.567 9.344l-372.766 236.872v30.947c0 35.346 28.654 64 64 64zM960 661.693c0.004-0.227 0.004-0.454 0-0.68v-469.013c0-58.91-47.757-106.667-106.667-106.667h-682.667c-58.91 0-106.667 47.757-106.667 106.667v469.014c-0.003 0.226-0.003 0.453 0 0.68v42.307c0 58.91 47.756 106.667 106.667 106.667h682.667c58.91 0 106.667-47.756 106.667-106.667v-42.307zM917.333 622.501l-350.059-222.445c-16.567-10.381-35.725-15.885-55.275-15.885s-38.707 5.504-55.275 15.885l-350.058 222.446v-430.501c0-35.345 28.654-64 64-64h682.667c35.345 0 64 28.655 64 64v430.501z" />
<glyph unicode="&#xe916;" glyph-name="move-left" d="M271.085 633.751c8.332-8.331 8.332-21.839 0-30.17l-134.248-134.249h801.83c11.78 0 21.333-9.553 21.333-21.333s-9.553-21.333-21.333-21.333h-801.83l134.248-134.246c8.332-8.333 8.332-21.841 0-30.174-8.331-8.329-21.839-8.329-30.17 0l-170.667 170.667c-8.332 8.333-8.332 21.841 0 30.174l170.667 170.665c8.331 8.332 21.839 8.332 30.17 0z" />
<glyph unicode="&#xe917;" glyph-name="move-right" d="M752.913 633.751c8.333 8.332 21.841 8.332 30.174 0l170.667-170.665c8.329-8.333 8.329-21.841 0-30.174l-170.667-170.667c-8.333-8.329-21.841-8.329-30.174 0-8.329 8.333-8.329 21.841 0 30.174l134.251 134.246h-801.83c-11.782 0-21.333 9.553-21.333 21.333s9.551 21.333 21.333 21.333h801.83l-134.251 134.249c-8.329 8.331-8.329 21.839 0 30.17z" />
<glyph unicode="&#xe91b;" glyph-name="search" d="M469.333 810.667c-176.731 0-320-143.269-320-320s143.269-320 320-320c176.73 0 320 143.27 320 320s-143.27 320-320 320zM106.667 490.667c0 200.295 162.371 362.667 362.667 362.667s362.667-162.371 362.667-362.667c0-92.471-34.607-176.858-91.58-240.917l170.667-170.662c8.329-8.333 8.329-21.841 0-30.174-8.333-8.329-21.841-8.329-30.174 0l-170.662 170.667c-64.060-56.973-148.446-91.58-240.917-91.58-200.295 0-362.667 162.372-362.667 362.667z" />
<glyph unicode="&#xe91c;" glyph-name="share" d="M768 853.333c58.91 0 106.667-47.756 106.667-106.667s-47.757-106.667-106.667-106.667c-38.639 0-72.482 20.546-91.196 51.31-0.269 0.568-0.563 1.13-0.887 1.683-0.324 0.558-0.67 1.095-1.037 1.612-8.627 15.398-13.547 33.156-13.547 52.062 0 58.91 47.757 106.667 106.667 106.667zM651.059 653.785c27.358-34.398 69.572-56.451 116.941-56.451 82.475 0 149.333 66.859 149.333 149.333s-66.859 149.333-149.333 149.333c-82.475 0-149.333-66.859-149.333-149.333 0-19.819 3.861-38.736 10.871-56.041l-256.597-149.744c-27.358 34.398-69.574 56.451-116.941 56.451-82.475 0-149.333-66.859-149.333-149.333s66.859-149.333 149.333-149.333c47.372 0 89.591 22.059 116.949 56.461l256.666-149.564c-7.061-17.357-10.948-36.339-10.948-56.23 0-82.475 66.859-149.333 149.333-149.333s149.333 66.859 149.333 149.333c0 82.475-66.859 149.333-149.333 149.333-47.292 0-89.451-21.986-116.813-56.29l-256.72 149.594c7.007 17.301 10.866 36.215 10.866 56.030 0 19.819-3.861 38.737-10.871 56.038l256.597 149.746zM347.196 503.356c0.268-0.567 0.563-1.131 0.886-1.681 0.326-0.559 0.672-1.097 1.039-1.613 8.628-15.398 13.546-33.156 13.546-52.062s-4.919-36.663-13.547-52.062c-0.369-0.521-0.718-1.062-1.045-1.626-0.32-0.546-0.613-1.105-0.879-1.668-18.714-30.767-52.556-51.311-91.196-51.311-58.91 0-106.667 47.757-106.667 106.667s47.756 106.667 106.667 106.667c38.641 0 72.482-20.546 91.196-51.311zM673.92 199.642c0.9 1.024 1.719 2.155 2.432 3.379 0.695 1.19 1.259 2.419 1.702 3.674 18.944 29.649 52.151 49.306 89.946 49.306 58.91 0 106.667-47.757 106.667-106.667s-47.757-106.667-106.667-106.667c-58.91 0-106.667 47.757-106.667 106.667 0 18.193 4.553 35.319 12.587 50.308z" />
<glyph unicode="&#xea60;" glyph-name="arrow-left-line" d="M128 768c11.782 0 21.333-9.551 21.333-21.333v-597.333c0-11.78-9.551-21.333-21.333-21.333s-21.333 9.553-21.333 21.333v597.333c0 11.782 9.551 21.333 21.333 21.333zM569.754 719.085c8.329-8.331 8.329-21.839 0-30.17l-219.584-219.582h545.83c11.78 0 21.333-9.553 21.333-21.333s-9.553-21.333-21.333-21.333h-545.83l219.584-219.58c8.329-8.333 8.329-21.841 0-30.174-8.333-8.329-21.841-8.329-30.174 0l-255.998 256c-8.332 8.333-8.332 21.841 0 30.174l255.998 255.998c8.333 8.332 21.841 8.332 30.174 0z" />
<glyph unicode="&#xea6c;" glyph-name="arrow-right-line" d="M896 768c11.78 0 21.333-9.551 21.333-21.333v-597.333c0-11.78-9.553-21.333-21.333-21.333s-21.333 9.553-21.333 21.333v597.333c0 11.782 9.553 21.333 21.333 21.333zM454.246 719.085c8.333 8.332 21.841 8.332 30.174 0l256-255.998c8.329-8.333 8.329-21.841 0-30.174l-256-256c-8.333-8.329-21.841-8.329-30.174 0-8.329 8.333-8.329 21.841 0 30.174l219.584 219.58h-545.83c-11.782 0-21.333 9.553-21.333 21.333s9.551 21.333 21.333 21.333h545.83l-219.584 219.582c-8.329 8.331-8.329 21.839 0 30.17z" />
<glyph unicode="&#xea83;" glyph-name="forward" d="M624.465 177.378c8.077-8.58 21.577-8.99 30.157-0.913l213.333 200.785c4.284 4.032 6.711 9.651 6.711 15.535 0 5.879-2.428 11.503-6.711 15.535l-213.333 200.783c-8.58 8.075-22.080 7.666-30.157-0.913s-7.667-22.081 0.913-30.156l174.161-163.915h-458.206c-40.009 0-78.138 14.972-106.058 41.246-27.876 26.24-43.275 61.538-43.275 98.048v80.314c0 11.782-9.551 21.333-21.333 21.333s-21.333-9.551-21.333-21.333v-80.314c0-48.691 20.563-95.104 56.699-129.117 36.093-33.967 84.783-52.843 135.301-52.843h458.206l-174.161-163.917c-8.58-8.077-8.99-21.577-0.913-30.157z" />
<glyph unicode="&#xeb99;" glyph-name="close" d="M240.915 719.085c8.331 8.332 21.839 8.332 30.17 0l240.915-240.915 240.913 240.915c8.333 8.332 21.841 8.332 30.174 0 8.329-8.331 8.329-21.839 0-30.17l-240.917-240.915 240.917-240.913c8.329-8.333 8.329-21.841 0-30.174-8.333-8.329-21.841-8.329-30.174 0l-240.913 240.917-240.915-240.917c-8.331-8.329-21.839-8.329-30.17 0-8.332 8.333-8.332 21.841 0 30.174l240.915 240.913-240.915 240.915c-8.332 8.331-8.332 21.839 0 30.17z" />
<glyph unicode="&#xec5a;" glyph-name="download" d="M512 853.333c11.78 0 21.333-9.551 21.333-21.333v-460.497l176.913 176.915c8.333 8.332 21.841 8.332 30.174 0 8.329-8.331 8.329-21.839 0-30.172l-213.333-213.333c-8.333-8.329-21.841-8.329-30.174 0l-213.331 213.333c-8.332 8.333-8.332 21.841 0 30.172s21.839 8.332 30.17 0l176.915-176.915v460.497c0 11.782 9.553 21.333 21.333 21.333zM128 341.333c11.782 0 21.333-9.553 21.333-21.333v-170.667c0-16.973 6.743-33.254 18.745-45.257s28.281-18.743 45.255-18.743h597.333c16.973 0 33.254 6.741 45.257 18.743s18.743 28.284 18.743 45.257v170.667c0 11.78 9.553 21.333 21.333 21.333s21.333-9.553 21.333-21.333v-170.667c0-28.288-11.238-55.42-31.241-75.426-20.006-20.002-47.138-31.241-75.426-31.241h-597.333c-28.29 0-55.421 11.238-75.425 31.241-20.004 20.006-31.242 47.138-31.242 75.426v170.667c0 11.78 9.551 21.333 21.333 21.333z" />
<glyph unicode="&#xecaf;" glyph-name="link" d="M559.898 827.291c44.262 42.746 103.539 66.4 165.069 65.865 61.525-0.535 120.384-25.214 163.891-68.723 43.511-43.509 68.19-102.367 68.727-163.895 0.533-61.529-23.121-120.806-65.869-165.067l-0.256-0.265-128-127.996c-23.787-23.795-52.42-42.202-83.947-53.961-31.526-11.763-65.216-16.606-98.782-14.204-33.562 2.406-66.219 11.998-95.748 28.134-29.53 16.132-55.245 38.43-75.4 65.374-7.057 9.434-5.13 22.805 4.305 29.862s22.805 5.129 29.862-4.305c16.491-22.046 37.53-40.29 61.692-53.491 24.162-13.197 50.876-21.047 78.34-23.014 27.46-1.967 55.023 1.997 80.819 11.618s49.22 24.678 68.685 44.151l127.868 127.868c34.897 36.199 54.199 84.642 53.764 134.923-0.439 50.342-20.629 98.498-56.23 134.096-35.597 35.599-83.755 55.791-134.093 56.228-50.295 0.437-98.748-18.877-134.946-53.785l-73.276-72.848c-8.354-8.307-21.862-8.268-30.17 0.088s-8.269 21.863 0.090 30.17l73.604 73.176zM344.486 582.752c31.528 11.761 65.216 16.603 98.782 14.2 33.562-2.404 66.219-11.998 95.748-28.132s55.245-38.431 75.401-65.375c7.057-9.434 5.129-22.805-4.305-29.862s-22.805-5.129-29.862 4.305c-16.491 22.046-37.53 40.29-61.692 53.491-24.158 13.199-50.876 21.048-78.34 23.015-27.46 1.967-55.023-1.996-80.819-11.618s-49.22-24.679-68.684-44.152l-127.869-127.868c-34.895-36.198-54.2-84.642-53.763-134.925 0.438-50.338 20.63-98.496 56.228-134.093 35.599-35.601 83.754-55.791 134.096-56.23 50.281-0.435 98.724 18.867 134.923 53.764l72.823 72.828c8.333 8.329 21.841 8.329 30.174 0 8.329-8.333 8.329-21.841 0-30.174l-73.225-73.22c-44.258-42.748-103.538-66.398-165.067-65.865-61.529 0.538-120.386 25.216-163.895 68.727-43.509 43.507-68.189 102.366-68.724 163.891-0.535 61.53 23.119 120.806 65.865 165.069l0.257 0.265 128 127.996c23.79 23.796 52.421 42.202 83.948 53.963z" />
<glyph unicode="&#xecb5;" glyph-name="eye" d="M108.871 448c0.495 1.015 1.037 2.112 1.626 3.294 3.878 7.753 9.797 18.957 17.834 32.461 16.099 27.046 40.563 63.088 73.968 99.062 66.822 71.963 168.221 142.516 309.7 142.516s242.876-70.554 309.7-142.516c33.404-35.974 57.869-72.016 73.967-99.062 8.038-13.504 13.956-24.708 17.835-32.461 0.589-1.182 1.131-2.278 1.626-3.294-0.495-1.015-1.037-2.112-1.626-3.294-3.878-7.753-9.796-18.957-17.835-32.461-16.098-27.046-40.563-63.087-73.967-99.063-66.825-71.962-168.222-142.515-309.7-142.515-141.48 0-242.878 70.554-309.7 142.515-33.405 35.977-57.87 72.017-73.968 99.063-8.037 13.504-13.956 24.708-17.834 32.461-0.59 1.182-1.132 2.278-1.626 3.294zM938.667 448c19.61 8.405 19.601 8.422 19.601 8.422l-0.043 0.102-0.102 0.226-0.341 0.772c-0.29 0.657-0.708 1.587-1.259 2.778-1.097 2.377-2.714 5.781-4.86 10.074-4.288 8.576-10.701 20.706-19.332 35.204-17.233 28.954-43.435 67.579-79.364 106.271-71.842 77.37-183.778 156.15-340.966 156.15s-269.122-78.78-340.966-156.15c-35.928-38.692-62.13-77.317-79.365-106.271-8.629-14.498-15.044-26.628-19.333-35.204-2.145-4.292-3.761-7.697-4.859-10.074-0.549-1.19-0.968-2.121-1.26-2.778l-0.341-0.772-0.099-0.226-0.032-0.077c0 0-0.020-0.043 19.589-8.448l-19.608 8.405c-2.3-5.367-2.3-11.443 0-16.811l19.608 8.405c-19.608-8.405-19.608-8.405-19.608-8.405l0.020-0.043 0.032-0.077 0.099-0.226 0.341-0.772c0.291-0.657 0.711-1.587 1.26-2.778 1.098-2.377 2.714-5.781 4.859-10.074 4.289-8.576 10.704-20.706 19.333-35.204 17.235-28.954 43.437-67.58 79.365-106.27 71.844-77.372 183.779-156.151 340.966-156.151s269.124 78.78 340.966 156.151c35.93 38.69 62.131 77.316 79.364 106.27 8.631 14.498 15.044 26.628 19.332 35.204 2.146 4.292 3.763 7.697 4.86 10.074 0.55 1.19 0.969 2.121 1.259 2.778l0.341 0.772 0.102 0.226 0.030 0.077c0 0 0.021 0.043-19.588 8.448zM938.667 448l19.61-8.405c2.3 5.367 2.291 11.46-0.009 16.828l-19.601-8.422zM512 554.667c-58.91 0-106.667-47.757-106.667-106.667s47.757-106.667 106.667-106.667c58.91 0 106.667 47.757 106.667 106.667s-47.757 106.667-106.667 106.667zM362.667 448c0 82.475 66.859 149.333 149.333 149.333s149.333-66.859 149.333-149.333c0-82.475-66.859-149.333-149.333-149.333s-149.333 66.859-149.333 149.333z" />
<glyph unicode="&#xef34;" glyph-name="menu" d="M149.333 704c0 11.782 9.551 21.333 21.333 21.333h682.667c11.78 0 21.333-9.551 21.333-21.333s-9.553-21.333-21.333-21.333h-682.667c-11.782 0-21.333 9.551-21.333 21.333zM149.333 448c0 11.78 9.551 21.333 21.333 21.333h682.667c11.78 0 21.333-9.553 21.333-21.333s-9.553-21.333-21.333-21.333h-682.667c-11.782 0-21.333 9.553-21.333 21.333zM149.333 192c0 11.78 9.551 21.333 21.333 21.333h682.667c11.78 0 21.333-9.553 21.333-21.333s-9.553-21.333-21.333-21.333h-682.667c-11.782 0-21.333 9.553-21.333 21.333z" />
<glyph unicode="&#xefd8;" glyph-name="pause" d="M298.667 768c-11.782 0-21.333-9.551-21.333-21.333v-597.333c0-11.78 9.551-21.333 21.333-21.333h85.333c11.782 0 21.333 9.553 21.333 21.333v597.333c0 11.782-9.551 21.333-21.333 21.333h-85.333zM234.667 746.667c0 35.346 28.654 64 64 64h85.333c35.346 0 64-28.654 64-64v-597.333c0-35.345-28.654-64-64-64h-85.333c-35.346 0-64 28.655-64 64v597.333zM640 768c-11.78 0-21.333-9.551-21.333-21.333v-597.333c0-11.78 9.553-21.333 21.333-21.333h85.333c11.78 0 21.333 9.553 21.333 21.333v597.333c0 11.782-9.553 21.333-21.333 21.333h-85.333zM576 746.667c0 35.346 28.655 64 64 64h85.333c35.345 0 64-28.654 64-64v-597.333c0-35.345-28.655-64-64-64h-85.333c-35.345 0-64 28.655-64 64v597.333z" />
<glyph unicode="&#xf00a;" glyph-name="play" d="M245.777 850.725c6.849 3.739 15.194 3.441 21.759-0.78l597.334-384c6.106-3.925 9.796-10.688 9.796-17.946s-3.691-14.020-9.796-17.946l-597.334-384c-6.565-4.22-14.909-4.518-21.759-0.781-6.85 3.742-11.111 10.923-11.111 18.726v768c0 7.804 4.261 14.985 11.111 18.725zM277.333 792.925v-689.85l536.55 344.926-536.55 344.925z" />
<glyph unicode="&#xf09f;" glyph-name="rss" d="M149.333 789.333c0 11.782 9.551 21.333 21.333 21.333 186.712 0 365.777-74.171 497.805-206.197 132.023-132.026 206.195-311.089 206.195-497.803 0-11.78-9.553-21.333-21.333-21.333s-21.333 9.553-21.333 21.333c0 175.398-69.675 343.607-193.698 467.633-124.028 124.024-292.239 193.7-467.635 193.7-11.782 0-21.333 9.551-21.333 21.333zM149.333 490.667c0 11.78 9.551 21.333 21.333 21.333 107.501 0 210.599-42.705 286.613-118.72s118.72-179.11 118.72-286.613c0-11.78-9.553-21.333-21.333-21.333s-21.333 9.553-21.333 21.333c0 96.183-38.208 188.429-106.223 256.444-68.013 68.015-160.259 106.223-256.444 106.223-11.782 0-21.333 9.553-21.333 21.333zM213.333 170.667c-11.782 0-21.333-9.553-21.333-21.333s9.551-21.333 21.333-21.333c11.782 0 21.333 9.553 21.333 21.333s-9.551 21.333-21.333 21.333zM149.333 149.333c0 35.345 28.654 64 64 64s64-28.655 64-64c0-35.345-28.654-64-64-64s-64 28.655-64 64z" />
<glyph unicode="&#xf23b;" glyph-name="twitter" d="M608.789 750.147c-55.514-28.924-92.988-90.064-75.93-169.677 1.327-6.192-0.166-12.654-4.075-17.636s-9.826-7.971-16.158-8.157c-140.73-4.14-281.308 53.148-379.217 154.254-76.632-179.492 23.306-396.605 214.054-453.83 7.435-2.231 13.072-8.324 14.718-15.91s-0.958-15.467-6.8-20.578c-54.205-47.428-123.137-76.928-195.575-87.061 339.389-161.83 734.017 124.621 672.462 509.346-1.079 6.755 1.143 13.618 5.982 18.455 23.654 23.657 42.752 54.762 56.542 81.929-11.789-5.552-24.661-11.020-37.495-15.357-15.078-5.098-31.501-9.123-46.63-9.123-5.402 0-10.607 2.051-14.554 5.737-56.964 53.165-131.345 56.774-187.324 27.61zM938.667 789.333c20.241-6.746 20.237-6.755 20.237-6.755l-0.038-0.116-0.085-0.254-0.307-0.885c-0.26-0.754-0.64-1.832-1.135-3.202-0.99-2.74-2.449-6.656-4.365-11.504-3.836-9.684-9.527-23.148-17.024-38.419-13.568-27.645-33.596-62.334-59.964-91.108 61.807-439.198-422.72-757.21-802.437-505.541-7.994 5.299-11.47 15.283-8.495 24.401s11.669 15.13 21.25 14.694c75.796-3.447 151.134 16.649 211.176 57.152-200.543 84.591-294.993 332.597-188.222 529.056 3.363 6.187 9.562 10.316 16.567 11.035s13.914-2.066 18.463-7.442c84.394-99.738 212.399-159.891 342.805-163.172-8.708 87.498 36.834 156.768 101.986 190.711 68.651 35.767 159.010 32.321 229.146-27.983 7.172 0.935 15.765 3.080 25.412 6.34 13.035 4.405 26.671 10.389 39.249 16.549 12.527 6.136 23.693 12.295 31.735 16.928 4.011 2.31 7.223 4.228 9.408 5.554 1.097 0.663 1.929 1.178 2.483 1.519l0.742 0.464c0 0 0.021 0.013 11.413-18.024z" />
<glyph unicode="&#xf2d5;" glyph-name="youtube" d="M171.052 700.213c-10.325-3.010-19.731-8.575-27.343-16.188-7.717-7.717-13.33-17.277-16.31-27.769-29.004-137.323-29.004-279.19 0-416.512 2.98-10.492 8.593-20.053 16.31-27.767 7.613-7.616 17.018-13.18 27.344-16.188 225.77-37.282 456.126-37.282 681.897 0 10.325 3.008 19.729 8.572 27.341 16.188 7.718 7.714 13.333 17.276 16.311 27.767 29.005 137.323 29.005 279.189 0 416.513-2.978 10.492-8.593 20.051-16.311 27.768-7.612 7.613-17.015 13.178-27.341 16.188-225.771 37.271-456.127 37.271-681.897 0zM162.914 742.113c231.149 38.293 467.025 38.293 698.172 0 0.725-0.12 1.446-0.278 2.155-0.472 17.856-4.896 34.129-14.354 47.223-27.446 13.090-13.092 22.549-29.366 27.443-47.221 0.111-0.403 0.209-0.809 0.294-1.218 30.426-143.575 30.426-291.936 0-435.509-0.085-0.41-0.183-0.819-0.294-1.22-4.894-17.856-14.353-34.129-27.443-47.219-13.094-13.094-29.367-22.554-47.223-27.447-0.708-0.196-1.429-0.354-2.155-0.474-231.147-38.302-467.024-38.302-698.173 0-0.725 0.119-1.444 0.277-2.153 0.474-17.856 4.894-34.129 14.353-47.221 27.447-13.092 13.090-22.55 29.363-27.446 47.219-0.111 0.401-0.209 0.811-0.296 1.22-30.424 143.573-30.424 291.934 0 435.509 0.087 0.409 0.185 0.815 0.296 1.218 4.896 17.856 14.354 34.129 27.446 47.221s29.365 22.55 47.221 27.446c0.71 0.194 1.428 0.352 2.154 0.472zM416.156 594.564c6.688 3.787 14.897 3.683 21.489-0.271l213.333-128.002c6.426-3.853 10.355-10.799 10.355-18.291s-3.93-14.438-10.355-18.291l-213.333-128c-6.592-3.955-14.801-4.062-21.489-0.273s-10.822 10.88-10.822 18.564v256c0 7.686 4.134 14.778 10.822 18.564zM448 538.321v-180.642l150.537 90.321-150.537 90.321z" />
</font>
</defs>
</svg>
