<?xml version="1.0" standalone="no"?>
<!DOCTYPE svg PUBLIC "-//W3C//DTD SVG 1.1//EN" "http://www.w3.org/Graphics/SVG/1.1/DTD/svg11.dtd" >
<svg xmlns="http://www.w3.org/2000/svg">
<metadata>Generated by IcoMoon</metadata>
<defs>
<font id="icomoon" horiz-adv-x="1024">
<font-face units-per-em="1024" ascent="960" descent="-64" />
<missing-glyph horiz-adv-x="1024" />
<glyph unicode="&#x20;" horiz-adv-x="512" d="" />
<glyph unicode="&#xe900;" glyph-name="download" horiz-adv-x="1170" d="M36.571 309.029c9.699 0 19.001-3.853 25.86-10.712s10.712-16.16 10.712-25.86v-182.857c0-19.397 7.706-38.005 21.423-51.719s32.321-21.424 51.72-21.424h877.714c19.397 0 38.005 7.709 51.719 21.424s21.424 32.322 21.424 51.719v182.857c0 9.699 3.855 19.002 10.708 25.86 6.861 6.859 16.165 10.712 25.863 10.712s19.003-3.853 25.863-10.712c6.853-6.858 10.708-16.16 10.708-25.86v-182.857c0-38.795-15.411-76.003-42.847-103.439s-64.644-42.847-103.439-42.847h-877.714c-38.797 0-76.006 15.411-103.44 42.847s-42.846 64.644-42.846 103.439v182.857c0 9.699 3.853 19.002 10.712 25.86s16.161 10.712 25.86 10.712zM559.25 166.107c3.397-3.408 7.433-6.107 11.876-7.951s9.206-2.794 14.016-2.794c4.811 0 9.574 0.951 14.016 2.794s8.479 4.542 11.876 7.951l219.429 219.429c6.868 6.867 10.723 16.181 10.723 25.893s-3.855 19.025-10.723 25.893c-6.868 6.867-16.179 10.725-25.893 10.725s-19.024-3.858-25.893-10.725l-156.965-157.038v643.145c0 9.699-3.853 19.001-10.712 25.86s-16.16 10.712-25.86 10.712c-9.699 0-19.002-3.853-25.86-10.712s-10.712-16.161-10.712-25.86v-643.145l-156.965 157.038c-6.867 6.867-16.181 10.725-25.893 10.725s-19.025-3.858-25.893-10.725c-6.867-6.867-10.725-16.181-10.725-25.893s3.858-19.025 10.725-25.893l219.429-219.429z" />
<glyph unicode="&#xe901;" glyph-name="eye" horiz-adv-x="1489" d="M1489.455 448c0 0-279.273 512-744.727 512s-744.727-512-744.727-512c0 0 279.273-512 744.727-512s744.727 512 744.727 512zM109.196 448c45.010 68.411 96.781 132.125 154.531 190.185 119.808 119.994 283.648 228.724 481.001 228.724s361.1-108.73 481.094-228.724c57.754-58.060 109.521-121.774 154.531-190.185-5.399-8.099-11.357-17.036-18.153-26.81-31.185-44.684-77.265-104.262-136.378-163.375-119.994-119.994-283.834-228.724-481.094-228.724-197.353 0-361.1 108.73-481.094 228.724-57.749 58.060-109.427 121.775-154.438 190.185zM744.727 680.727c-61.723 0-120.919-24.519-164.563-68.164s-68.164-102.84-68.164-164.563c0-61.723 24.519-120.919 68.164-164.563s102.84-68.164 164.563-68.164c61.723 0 120.919 24.519 164.563 68.164s68.164 102.84 68.164 164.563c0 61.723-24.52 120.919-68.164 164.563s-102.84 68.164-164.563 68.164zM418.909 448c0 86.413 34.327 169.286 95.43 230.388s143.975 95.43 230.388 95.43c86.413 0 169.286-34.327 230.391-95.43s95.427-143.975 95.427-230.388c0-86.413-34.323-169.286-95.427-230.388s-143.978-95.43-230.391-95.43c-86.413 0-169.286 34.327-230.388 95.43s-95.43 143.975-95.43 230.388z" />
<glyph unicode="&#xe902;" glyph-name="burger" horiz-adv-x="1489" d="M1489.455 866.909h-1489.455v93.091h1489.455v-93.091zM1489.455 401.455h-1489.455v93.091h1489.455v-93.091zM1489.455-64h-1489.455v93.091h1489.455v-93.091z" />
<glyph unicode="&#xe903;" glyph-name="link-blank" d="M612.64 262.047l-175.040-175.041c-78.784-78.78-210.048-78.78-288.832 0-78.784 78.785-78.784 210.049 0 288.833l175.040 175.040c17.504 17.504 17.504 43.776 0 61.28s-43.776 17.504-61.28 0l-175.040-175.040c-52.704-52.608-85.312-125.344-85.312-205.664s32.608-153.085 85.312-205.667c52.512-52.506 131.296-87.518 210.048-87.518s148.8 26.24 210.048 87.518l175.040 175.043c17.504 17.504 17.504 43.776 0 61.28s-52.48 17.44-69.984-0.064zM936.482 874.688c-52.608 52.704-125.347 85.312-205.667 85.312s-153.088-32.608-205.664-85.312l-87.52-87.52c-17.504-17.504-17.504-43.777 0-61.28l140.032-140.032-315.072-323.84c-17.504-17.504-17.504-43.776 0-61.28 8.768-8.736 17.504-8.736 35.008-8.736s26.24 0 35.008 8.736l306.336 323.84 148.8-148.8c8.736-8.736 17.504-8.736 35.008-8.736s26.24 0 35.011 8.736l87.518 87.52c105.020 113.792 104.96 297.6-8.798 411.392zM875.196 524.608l-61.276-52.512-113.792 113.792 52.512 52.512c17.504 17.504 17.504 43.776 0 61.28s-35.008 17.504-52.512 0l-61.28-52.512-113.792 113.792 52.512 52.512c78.784 78.784 210.048 78.784 288.83 0 87.518-78.784 87.586-210.080 8.798-288.864z" />
<glyph unicode="&#xe904;" glyph-name="caret" horiz-adv-x="1664" d="M814.592 326.4l633.6 633.6 180.992-180.992-814.592-814.592-814.592 814.592 180.992 180.992 633.6-633.6z" />
<glyph unicode="&#xe905;" glyph-name="arrow" horiz-adv-x="1638" d="M1126.4 960l-89.6-89.6 358.4-358.4h-1395.2v-128h1395.2l-358.4-358.4 89.6-89.6 512 512-512 512z" />
<glyph unicode="&#xe906;" glyph-name="arrow-first" horiz-adv-x="1408" d="M0 960v-1024h128v421.49l362.039-362.038c24.993-24.995 65.516-24.995 90.509 0 24.995 24.993 24.995 65.516 0 90.509l-298.038 298.039h1125.49v128h-1125.49l298.038 298.039c24.995 24.993 24.995 65.516 0 90.509-24.993 24.994-65.516 24.994-90.509 0l-362.039-362.038v421.49h-128z" />
<glyph unicode="&#xe907;" glyph-name="arrow-last" horiz-adv-x="1408" d="M1280 357.49v-421.49h128v1024h-128v-421.49l-362.039 362.038c-24.993 24.994-65.516 24.994-90.509 0-24.995-24.994-24.995-65.516 0-90.509l298.038-298.039h-1125.49v-128h1125.49l-298.038-298.039c-24.995-24.993-24.995-65.516 0-90.509 24.993-24.995 65.516-24.995 90.509 0l362.039 362.038z" />
<glyph unicode="&#xe908;" glyph-name="arrow-left" horiz-adv-x="1408" d="M490.039-45.254l-407.294 407.293c-24.994 24.993-24.994 65.516 0 90.509l407.294 407.294c24.993 24.994 65.516 24.994 90.509 0 24.995-24.994 24.995-65.516 0-90.509l-298.038-298.039h1125.49v-128h-1125.49l298.038-298.039c24.995-24.993 24.995-65.516 0-90.509-24.993-24.993-65.516-24.993-90.509 0z" />
<glyph unicode="&#xe909;" glyph-name="arrow-right" horiz-adv-x="1408" d="M917.961 941.255l407.3-407.294c24.986-24.993 24.986-65.516 0-90.509l-407.3-407.293c-24.993-24.995-65.516-24.995-90.509 0-24.995 24.993-24.995 65.516 0 90.509l298.038 298.039h-1125.49v128h1125.49l-298.038 298.039c-24.995 24.994-24.995 65.516 0 90.51 24.993 24.994 65.516 24.994 90.509 0z" />
<glyph unicode="&#xe90a;" glyph-name="instagram" d="M512 867.744c136.704 0 152.896-0.512 206.88-2.976 49.92-2.272 77.028-10.624 95.074-17.632 23.899-9.281 40.96-20.384 58.88-38.304s29.019-34.977 38.305-58.881c7.003-18.048 15.36-45.151 17.629-95.071 2.465-53.984 2.977-70.176 2.977-206.88s-0.512-152.896-2.977-206.88c-2.269-49.92-10.626-77.028-17.629-95.074-9.287-23.899-20.385-40.96-38.305-58.88s-34.981-29.019-58.88-38.305c-18.046-7.003-45.154-15.36-95.074-17.629-53.984-2.465-70.176-2.977-206.88-2.977s-152.928 0.512-206.88 2.977c-49.92 2.269-77.024 10.626-95.071 17.629-23.904 9.287-40.961 20.385-58.881 38.305s-29.023 34.981-38.304 58.88c-7.008 18.046-15.36 45.154-17.632 95.074-2.464 53.984-2.976 70.176-2.976 206.88s0.512 152.896 2.976 206.88c2.272 49.92 10.624 77.024 17.632 95.071 9.281 23.904 20.384 40.961 38.304 58.881s34.977 29.023 58.881 38.304c18.048 7.008 45.151 15.36 95.071 17.632 53.984 2.464 70.176 2.976 206.88 2.976zM512 960c-139.040 0-156.48-0.576-211.104-3.072-54.496-2.496-91.712-11.136-124.288-23.808-33.664-13.088-62.208-30.592-90.688-59.072s-45.984-57.023-59.040-90.688c-12.672-32.576-21.312-69.792-23.808-124.288-2.496-54.623-3.072-72.031-3.072-211.104s0.576-156.48 3.072-211.104c2.496-54.496 11.136-91.716 23.808-124.287 13.088-33.666 30.592-62.243 59.040-90.687 28.448-28.451 57.024-45.954 90.688-59.045 32.577-12.666 69.792-21.307 124.288-23.804 54.624-2.497 72.064-3.072 211.104-3.072s156.48 0.575 211.104 3.072c54.496 2.497 91.709 11.138 124.288 23.804 33.666 13.091 62.243 30.594 90.687 59.045 28.451 28.444 45.985 57.021 59.077 90.687 12.635 32.571 21.307 69.791 23.804 124.287 2.497 54.624 3.072 72.064 3.072 211.104s-0.575 156.481-3.072 211.104c-2.497 54.496-11.138 91.713-23.804 124.288-13.091 33.664-30.594 62.208-59.077 90.688-28.475 28.48-57.021 45.984-90.687 59.040-32.579 12.672-69.791 21.312-124.288 23.808-54.592 2.496-72.032 3.072-211.104 3.072v0.032zM512 710.912c-145.216 0-262.912-117.728-262.912-262.912s117.696-262.912 262.912-262.912c145.216 0 262.912 117.696 262.912 262.912s-117.728 262.912-262.912 262.912v0zM512 277.344c-94.24 0-170.656 76.416-170.656 170.656s76.416 170.656 170.656 170.656c94.24 0 170.656-76.416 170.656-170.656s-76.416-170.656-170.656-170.656v0zM846.753 721.312c0-33.92-27.522-61.44-61.442-61.44s-61.44 27.52-61.44 61.44c0 33.92 27.52 61.44 61.44 61.44s61.442-27.52 61.442-61.44z" />
<glyph unicode="&#xe90b;" glyph-name="facebook" horiz-adv-x="630" d="M360.088 561.777h270.066l-30.007-113.777h-240.059v-512h-120.029v512h-240.059v113.777h240.059v106.496c0 101.434 11.162 138.24 32.048 175.332 20.465 36.647 52.081 66.617 90.742 86.016 39.129 19.797 77.959 30.379 184.965 30.379 31.327 0 58.814-2.844 82.34-8.533v-105.244h-82.34c-79.459 0-103.645-4.438-128.312-16.954-18.244-9.216-31.807-22.073-41.53-39.366-13.203-23.382-17.885-46.308-17.885-121.629v-106.496z" />
<glyph unicode="&#xe90c;" glyph-name="linkedin" d="M497.371 605.989c53.658 54.828 123.524 90.697 204.8 90.697 85.358 0 167.212-33.907 227.569-94.261 60.35-60.355 94.259-142.213 94.259-227.567v-438.857h-117.029v438.857c0 54.317-21.577 106.408-59.984 144.816s-90.5 59.984-144.816 59.984c-54.317 0-106.408-21.577-144.816-59.984s-59.984-90.499-59.984-144.816v-438.857h-117.029v731.429h117.029v-61.44zM87.771 784.457c-23.278 0-45.603 9.247-62.064 25.708s-25.708 38.785-25.708 62.064c0 23.278 9.247 45.603 25.708 62.064s38.785 25.708 62.064 25.708c23.278 0 45.603-9.247 62.064-25.708s25.708-38.785 25.708-62.064c0-23.278-9.247-45.603-25.708-62.064s-38.785-25.708-62.064-25.708zM29.257 667.429h117.029v-731.429h-117.029v731.429z" />
<glyph unicode="&#xe90d;" glyph-name="twitter" horiz-adv-x="1195" d="M828.149 836.895v0c114.827 0 175.098-102.296 175.098-131.699 0-360.221-186.831-578.592-467.824-636.536-44.43-9.105-97.972-11.691-154.373-8.055l94.816 71.536c4.72 3.55 8.525 8.241 11.083 13.662s3.791 11.407 3.592 17.434c-0.2 6.027-1.827 11.912-4.738 17.139s-7.019 9.638-11.962 12.848l-104.047 67.541c-167.536 108.816-237.1 249.866-201.484 453.474 112.445-96.76 229.654-154.952 351.985-172.175l92.97-13.041c4.992-0.695 10.070-0.291 14.901 1.184s9.305 3.988 13.129 7.375c3.825 3.386 6.912 7.57 9.061 12.275s3.31 9.827 3.408 15.029l1.667 96.883c0.828 46.744 19.389 91.284 51.691 124.037s75.761 51.098 121.027 51.091zM536.317 664.043c1.039 59.296 18.992 116.957 51.61 165.764s78.451 86.592 131.762 108.623c53.311 22.031 111.729 27.33 167.939 15.232 56.218-12.098 107.725-41.054 148.079-83.242 42.342 0.307 78.379-10.765 158.959 39.676-19.951-100.882-29.781-144.679-72.303-204.9 0-470.083-279.742-698.668-563.594-757.164-194.634-40.107-477.652 25.771-558.769 113.246 41.333 3.319 209.286 21.956 306.365 95.344-82.13 55.916-409.042 254.602-194.218 788.782 100.832-121.611 203.092-204.408 306.722-248.329 68.968-29.218 85.882-28.604 117.507-33.094l-0.060 0.061z" />
<glyph unicode="&#xe90e;" glyph-name="close" d="M946.869 904.302l-891.171-891.171-55.698 55.698 891.171 891.171 55.698-55.698zM914.243-11.579l-891.172 891.17 55.698 55.699 891.171-891.171-55.698-55.698z" />
<glyph unicode="&#xe90f;" glyph-name="pause" horiz-adv-x="788" d="M708.923-64v1024h78.769v-1024h-78.769zM0-64v1024h78.769v-1024h-78.769z" />
<glyph unicode="&#xe910;" glyph-name="play" horiz-adv-x="788" d="M0-24.615v984.615l787.692-512-787.692-472.615z" />
<glyph unicode="&#xe911;" glyph-name="caret-bottom" horiz-adv-x="1664" d="M814.592 326.4l633.6 633.6 180.992-180.992-814.592-814.592-814.592 814.592 180.992 180.992 633.6-633.6z" />
<glyph unicode="&#xe912;" glyph-name="caret-left" horiz-adv-x="658" d="M241.592 456.117l362.057-362.056-103.424-103.424-465.481 465.48 465.481 465.481 103.424-103.424-362.057-362.057z" />
<glyph unicode="&#xe913;" glyph-name="caret-right" horiz-adv-x="683" d="M120.32 960l-120.32-120.32 390.827-391.68-390.827-391.68 120.32-120.32 512 512-512 512z" />
<glyph unicode="&#xe914;" glyph-name="caret-top" horiz-adv-x="1792" d="M881.793 598.015l-633.601-633.6-180.991 180.992 814.593 814.591 814.591-814.593-180.992-180.992-633.599 633.601z" />
<glyph unicode="&#xe915;" glyph-name="social" horiz-adv-x="910" d="M56.889 448.001l682.667 398.222 28.666-49.139-682.668-398.222-28.665 49.139zM739.556 49.778l-682.667 398.223 28.665 49.138 682.668-398.221-28.666-49.141zM910.222 846.222c0-62.838-50.938-113.778-113.778-113.778s-113.778 50.94-113.778 113.778c0 62.838 50.938 113.778 113.778 113.778s113.778-50.94 113.778-113.778zM227.556 448c0-62.839-50.94-113.778-113.778-113.778s-113.778 50.938-113.778 113.778c0 62.838 50.94 113.778 113.778 113.778s113.778-50.94 113.778-113.778zM910.222 49.778c0-62.839-50.938-113.778-113.778-113.778s-113.778 50.938-113.778 113.778c0 62.839 50.938 113.778 113.778 113.778s113.778-50.938 113.778-113.778z" />
<glyph unicode="&#xe916;" glyph-name="list-hyphen" horiz-adv-x="2560" d="M0 960h170.656v-853.344h2389.344v-170.656h-2560v1024z" />
<glyph unicode="&#xe917;" glyph-name="search" d="M795.584 247.264l212.544-208.804-70.212-68.992-212.507 208.836c-79.072-62.272-177.408-96.162-278.752-96-246.56 0-446.656 196.608-446.656 438.848s200.096 438.848 446.656 438.848c246.56 0 446.656-196.608 446.656-438.848 0.162-99.584-34.338-196.192-97.728-273.888v0zM696.032 283.456c62.976 63.648 98.144 148.96 98.016 237.728 0 188.608-155.488 341.344-347.392 341.344-191.968 0-347.392-152.736-347.392-341.344 0-188.576 155.424-341.344 347.392-341.344 90.336-0.128 177.152 34.432 241.92 96.32l7.456 7.328v-0.032z" />
<glyph unicode="&#xe918;" glyph-name="toc" horiz-adv-x="1303" d="M1024 820.364h-1024v93.091h1024v-93.091zM1024 541.091h-1024v93.091h1024v-93.091zM1024 261.818h-1024v93.091h1024v-93.091zM1024-17.455h-1024v93.091h1024v-93.091zM1303.273 866.909c0-51.412-41.677-93.091-93.091-93.091s-93.091 41.679-93.091 93.091c0 51.413 41.677 93.091 93.091 93.091s93.091-41.678 93.091-93.091zM1303.273 587.636c0-51.412-41.677-93.091-93.091-93.091s-93.091 41.679-93.091 93.091c0 51.412 41.677 93.091 93.091 93.091s93.091-41.679 93.091-93.091zM1303.273 308.364c0-51.412-41.677-93.091-93.091-93.091s-93.091 41.679-93.091 93.091c0 51.412 41.677 93.091 93.091 93.091s93.091-41.679 93.091-93.091zM1303.273 29.091c0-51.414-41.677-93.091-93.091-93.091s-93.091 41.677-93.091 93.091c0 51.412 41.677 93.091 93.091 93.091s93.091-41.679 93.091-93.091z" />
</font>
</defs>
</svg>
