<!-- Generated by IcoMoon.io -->
<svg version="1.1" xmlns="http://www.w3.org/2000/svg" width="32" height="32" viewBox="0 0 32 32">
<title>eye</title>
<path d="M16 8c0.013-0 0.028-0 0.043-0 5.123 0 9.555 2.957 11.683 7.257l0.034 0.076c-2.2 4.493-6.707 7.333-11.76 7.333s-9.56-2.84-11.76-7.333c2.162-4.376 6.594-7.333 11.717-7.333 0.015 0 0.030 0 0.046 0h-0.002zM16 5.333c-6.667 0-12.36 4.147-14.667 10 2.307 5.853 8 10 14.667 10s12.36-4.147 14.667-10c-2.307-5.853-8-10-14.667-10zM16 12c1.841 0 3.333 1.492 3.333 3.333s-1.492 3.333-3.333 3.333v0c-1.841 0-3.333-1.492-3.333-3.333s1.492-3.333 3.333-3.333v0zM16 9.333c-3.307 0-6 2.693-6 6s2.693 6 6 6 6-2.693 6-6-2.693-6-6-6z"></path>
</svg>
