<!-- Generated by IcoMoon.io -->
<svg version="1.1" xmlns="http://www.w3.org/2000/svg" width="20" height="32" viewBox="0 0 20 32">
<title>facebook</title>
<path d="M10.667 12.444h8l-0.889 3.556h-7.111v16h-3.556v-16h-7.111v-3.556h7.111v-3.328c0-3.17 0.331-4.32 0.949-5.479 0.606-1.145 1.543-2.082 2.688-2.688 1.159-0.619 2.309-0.949 5.479-0.949 0.928 0 1.742 0.089 2.439 0.267v3.289h-2.439c-2.354 0-3.070 0.139-3.801 0.53-0.54 0.288-0.942 0.69-1.23 1.23-0.391 0.731-0.53 1.447-0.53 3.801v3.328z"></path>
</svg>
