<!-- Generated by IcoMoon.io -->
<svg version="1.1" xmlns="http://www.w3.org/2000/svg" width="32" height="32" viewBox="0 0 32 32">
<title>link-blank</title>
<path d="M19.145 21.88l-5.47 5.47c-2.462 2.462-6.564 2.462-9.026 0s-2.462-6.564 0-9.026l5.47-5.47c0.547-0.547 0.547-1.368 0-1.915s-1.368-0.547-1.915 0l-5.47 5.47c-1.647 1.644-2.666 3.917-2.666 6.427s1.019 4.784 2.666 6.427l0 0c1.641 1.641 4.103 2.735 6.564 2.735s4.65-0.82 6.564-2.735l5.47-5.47c0.547-0.547 0.547-1.368 0-1.915s-1.641-0.547-2.188 0z"></path>
<path d="M29.265 2.735c-1.644-1.647-3.917-2.666-6.427-2.666s-4.784 1.019-6.427 2.666l-2.735 2.735c-0.547 0.547-0.547 1.368 0 1.915l4.376 4.376-9.846 10.12c-0.547 0.547-0.547 1.368 0 1.915 0.274 0.273 0.547 0.273 1.094 0.273s0.82 0 1.094-0.273l9.573-10.12 4.65 4.65c0.273 0.273 0.547 0.273 1.094 0.273s0.82 0 1.094-0.273l2.735-2.735c3.282-3.556 3.282-9.299-0.273-12.855zM27.35 13.675l-1.915 1.641-3.556-3.556 1.641-1.641c0.547-0.547 0.547-1.368 0-1.915s-1.094-0.547-1.641 0l-1.915 1.641-3.556-3.556 1.641-1.641c2.462-2.462 6.564-2.462 9.026 0 2.735 2.462 2.735 6.564 0.273 9.026z"></path>
</svg>
