<!-- Generated by IcoMoon.io -->
<svg version="1.1" xmlns="http://www.w3.org/2000/svg" width="32" height="32" viewBox="0 0 32 32">
<title>linkedin</title>
<path d="M15.111 10.756c1.63-1.666 3.753-2.756 6.222-2.756 2.593 0 5.080 1.030 6.914 2.864s2.864 4.321 2.864 6.914v13.333h-3.556v-13.333c0-1.65-0.655-3.233-1.822-4.4s-2.75-1.822-4.4-1.822c-1.65 0-3.233 0.656-4.4 1.822s-1.822 2.75-1.822 4.4v13.333h-3.556v-22.222h3.556v1.867zM2.667 5.333c-0.707 0-1.386-0.281-1.886-0.781s-0.781-1.178-0.781-1.886c0-0.707 0.281-1.386 0.781-1.886s1.178-0.781 1.886-0.781c0.707 0 1.386 0.281 1.886 0.781s0.781 1.178 0.781 1.886c0 0.707-0.281 1.386-0.781 1.886s-1.178 0.781-1.886 0.781zM0.889 8.889h3.556v22.222h-3.556v-22.222z"></path>
</svg>
