<!-- Generated by IcoMoon.io -->
<svg version="1.1" xmlns="http://www.w3.org/2000/svg" width="32" height="32" viewBox="0 0 32 32">
<title>search</title>
<path d="M24.862 22.274l6.642 6.525-2.194 2.156-6.641-6.526c-2.471 1.946-5.544 3.005-8.711 3-7.705 0-13.958-6.144-13.958-13.714s6.253-13.714 13.958-13.714c7.705 0 13.958 6.144 13.958 13.714 0.005 3.112-1.073 6.131-3.054 8.559zM21.751 21.143c1.968-1.989 3.067-4.655 3.063-7.429 0-5.894-4.859-10.667-10.856-10.667-5.999 0-10.856 4.773-10.856 10.667 0 5.893 4.857 10.667 10.856 10.667 2.823 0.004 5.536-1.076 7.56-3.010l0.233-0.229z"></path>
</svg>
