<!-- Generated by IcoMoon.io -->
<svg version="1.1" xmlns="http://www.w3.org/2000/svg" width="37" height="32" viewBox="0 0 37 32">
<title>twitter</title>
<path d="M25.421 4.533c-1.351-0-2.648 0.53-3.613 1.477s-1.518 2.234-1.543 3.585l-0.050 2.8c-0.003 0.15-0.038 0.298-0.102 0.434s-0.156 0.257-0.27 0.355c-0.114 0.098-0.248 0.171-0.392 0.213s-0.296 0.054-0.445 0.034l-2.775-0.377c-3.652-0.498-7.15-2.18-10.507-4.976-1.063 5.884 1.013 9.961 6.014 13.106l3.106 1.952c0.148 0.093 0.27 0.22 0.357 0.371s0.135 0.321 0.141 0.495c0.006 0.174-0.031 0.347-0.107 0.504s-0.19 0.292-0.331 0.395l-2.83 2.068c1.684 0.105 3.282 0.030 4.608-0.233 8.387-1.675 13.964-7.986 13.964-18.396 0-0.85-1.799-3.806-5.227-3.806zM16.71 9.529c0.031-1.714 0.567-3.38 1.541-4.791s2.342-2.503 3.933-3.139c1.591-0.637 3.335-0.79 5.013-0.44s3.215 1.187 4.42 2.406c1.264-0.009 2.34 0.311 4.745-1.147-0.596 2.916-0.889 4.181-2.158 5.922 0 13.586-8.35 20.192-16.823 21.883-5.81 1.159-14.258-0.745-16.679-3.273 1.234-0.096 6.247-0.635 9.145-2.756-2.452-1.616-12.21-7.358-5.797-22.797 3.010 3.515 6.062 5.908 9.156 7.177 2.059 0.844 2.564 0.827 3.508 0.956l-0.002-0.002z"></path>
</svg>
