<svg xmlns="http://www.w3.org/2000/svg">
  <defs>
    <style>
    .i { display: none }
    .i:target { display: inline }
    </style>
  </defs>

  <svg viewBox="0 0 20 17">
    <g id="burger" class="i">
      <line x1="20" y1="0.5" x2="-4.37114e-08" y2="0.499998" stroke="currentColor"/>
      <line x1="20" y1="8.5" x2="-4.37114e-08" y2="8.5" stroke="currentColor"/>
      <line x1="20" y1="16.5" x2="-4.37114e-08" y2="16.5" stroke="currentColor"/>
    </g>
  </svg>

  <svg viewBox="0 0 11 8">
    <g id="arrow" class="i">
      <path d="M10.3536 4.35355C10.5488 4.15829 10.5488 3.84171 10.3536 3.64645L7.17157 0.464466C6.97631 0.269204 6.65973 0.269204 6.46447 0.464466C6.2692 0.659728 6.2692 0.976311 6.46447 1.17157L9.29289 4L6.46447 6.82843C6.2692 7.02369 6.2692 7.34027 6.46447 7.53553C6.65973 7.7308 6.97631 7.7308 7.17157 7.53553L10.3536 4.35355ZM0 4.5H10V3.5H0V4.5Z" fill="currentColor"/>
    </g>
  </svg>

  <svg viewBox="0 0 11 8">
    <g id="arrow-left" class="i">
      <path fill-rule="evenodd" clip-rule="evenodd" d="M3.82843 7.53556L0.646447 4.35358C0.451185 4.15832 0.451185 3.84173 0.646447 3.64647L3.82843 0.464492C4.02369 0.26923 4.34027 0.26923 4.53553 0.464492C4.7308 0.659754 4.7308 0.976337 4.53553 1.1716L2.20711 3.50003L11 3.50003L11 4.50003L2.20711 4.50003L4.53553 6.82845C4.7308 7.02372 4.7308 7.3403 4.53553 7.53556C4.34027 7.73082 4.02369 7.73082 3.82843 7.53556Z" fill="currentColor"/>
    </g>
  </svg>

  <svg viewBox="0 0 11 8">
    <g id="arrow-right" class="i">
      <path fill-rule="evenodd" clip-rule="evenodd" d="M7.17157 0.46444L10.3536 3.64642C10.5488 3.84168 10.5488 4.15826 10.3536 4.35353L7.17157 7.53551C6.97631 7.73077 6.65973 7.73077 6.46447 7.53551C6.2692 7.34025 6.2692 7.02366 6.46447 6.8284L8.79289 4.49997H0V3.49997H8.79289L6.46447 1.17155C6.2692 0.976284 6.2692 0.659702 6.46447 0.46444C6.65973 0.269178 6.97631 0.269178 7.17157 0.46444Z" fill="currentColor"/>
    </g>
  </svg>

  <svg viewBox="0 0 11 8">
    <g id="arrow-first" class="i">
      <path fill-rule="evenodd" clip-rule="evenodd" d="M0 0V8H1L1 4.70711L3.82843 7.53553C4.02369 7.7308 4.34027 7.7308 4.53553 7.53553C4.7308 7.34027 4.7308 7.02369 4.53553 6.82843L2.20711 4.5L11 4.5V3.5L2.20711 3.5L4.53553 1.17157C4.7308 0.97631 4.7308 0.659728 4.53553 0.464466C4.34027 0.269203 4.02369 0.269203 3.82843 0.464465L1 3.29289L1 0H0Z" fill="currentColor"/>
    </g>
  </svg>

  <svg viewBox="0 0 11 8">
    <g id="arrow-last" class="i">
      <path fill-rule="evenodd" clip-rule="evenodd" d="M10 4.70711V8H11V0H10V3.29289L7.17157 0.464466C6.97631 0.269204 6.65973 0.269204 6.46447 0.464466C6.2692 0.659728 6.2692 0.976311 6.46447 1.17157L8.79289 3.5H0V4.5H8.79289L6.46447 6.82843C6.2692 7.02369 6.2692 7.34027 6.46447 7.53553C6.65973 7.7308 6.97631 7.7308 7.17157 7.53553L10 4.70711Z" fill="currentColor"/>
    </g>
  </svg>

  <svg viewBox="0 0 10 6">
    <g id="caret" class="i" fill="none">
      <path d="M1 1L5 5L9 1" stroke="currentColor"/>
    </g>
  </svg>

  <svg viewBox="0 0 24 24">
    <g id="download" class="i" fill="none">
      <path fill="none" d="M0 0h24v24H0z" stroke="currentColor"/>
      <path stroke="currentColor" d="M18 15v3H6v-3H4v3c0 1.1.9 2 2 2h12c1.1 0 2-.9 2-2v-3h-2zm-1-4-1.41-1.41L13 12.17V4h-2v8.17L8.41 9.59 7 11l5 5 5-5z"/>
    </g>
  </svg>

  <svg viewBox="0 0 24 24">
    <g id="eye" class="i" fill="none">
      <path stroke="currentColor" d="M0 0h24v24H0V0z" fill="none"/>
      <path stroke="currentColor" d="M12 6a9.77 9.77 0 0 1 8.82 5.5C19.17 14.87 15.79 17 12 17s-7.17-2.13-8.82-5.5A9.77 9.77 0 0 1 12 6m0-2C7 4 2.73 7.11 1 11.5 2.73 15.89 7 19 12 19s9.27-3.11 11-7.5C21.27 7.11 17 4 12 4zm0 5a2.5 2.5 0 0 1 0 5 2.5 2.5 0 0 1 0-5m0-2c-2.48 0-4.5 2.02-4.5 4.5S9.52 16 12 16s4.5-2.02 4.5-4.5S14.48 7 12 7z"/>
    </g>
  </svg>

  <svg viewBox="0 0 11.7 11.7">
    <g id="link-blank" class="i">
      <path fill="currentColor" d="m7 8-2 2c-.9.9-2.4.9-3.3 0-.9-.9-.9-2.4 0-3.3l2-2c.2-.2.2-.5 0-.7s-.5-.2-.7 0L1 6a3.32 3.32 0 0 0 0 4.7c.6.6 1.5 1 2.4 1s1.7-.3 2.4-1l2-2c.2-.2.2-.5 0-.7s-.6-.2-.8 0z"/>
      <path fill="currentColor" d="M10.7 1A3.32 3.32 0 0 0 6 1L5 2c-.2.2-.2.5 0 .7l1.6 1.6L3 8c-.2.2-.2.5 0 .7.1.1.2.1.4.1s.3 0 .4-.1L7.3 5 9 6.7c.1.1.2.1.4.1s.3 0 .4-.1l1-1C12 4.4 12 2.3 10.7 1zM10 5l-.7.6L8 4.3l.6-.6c.2-.2.2-.5 0-.7s-.4-.2-.6 0l-.7.6L6 2.3l.6-.6c.9-.9 2.4-.9 3.3 0 1 .9 1 2.4.1 3.3z"/>
    </g>
  </svg>

  <svg viewBox="0 0 21 20">
    <g id="facebook" class="i">
      <path d="M0.00195312 10.002C0.00311667 14.9214 3.58036 19.11 8.43895 19.881V12.892H5.90195V10.002H8.44195V7.802C8.32841 6.75954 8.68448 5.72059 9.41359 4.96693C10.1427 4.21327 11.1693 3.82301 12.215 3.902C12.9655 3.91412 13.7141 3.98096 14.455 4.102V6.561H13.191C12.7558 6.504 12.3183 6.64772 12.0017 6.95167C11.6851 7.25561 11.5237 7.68688 11.563 8.124V10.002H14.334L13.891 12.893H11.563V19.881C16.8174 19.0506 20.502 14.2518 19.9475 8.96107C19.3929 3.67037 14.7932 -0.260072 9.48078 0.017177C4.16831 0.294426 0.0027976 4.68231 0.00195312 10.002Z" fill="currentColor"/>
    </g>
  </svg>

  <svg viewBox="0 0 18 18">
    <g id="linkedin" class="i">
      <path d="M10 18H6V6H10V8C10.8526 6.91525 12.1456 6.26857 13.525 6.237C16.0056 6.25077 18.0072 8.26938 18 10.75V18H14V11.25C13.84 10.1326 12.8818 9.30358 11.753 9.306C11.2593 9.32161 10.7932 9.53778 10.4624 9.90462C10.1316 10.2715 9.96464 10.7573 10 11.25V18ZM4 18H0V6H4V18ZM2 4C0.89543 4 0 3.10457 0 2C0 0.89543 0.89543 0 2 0C3.10457 0 4 0.89543 4 2C4 2.53043 3.78929 3.03914 3.41421 3.41421C3.03914 3.78929 2.53043 4 2 4Z" fill="currentColor"/>
    </g>
  </svg>

  <svg viewBox="0 0 22 17">
    <g id="twitter" class="i">
      <path d="M18.995 2.688C19.8914 2.15209 20.5622 1.30824 20.882 0.314004C20.0397 0.813807 19.118 1.16588 18.157 1.355C16.8246 -0.0544686 14.7135 -0.39747 13.0034 0.51766C11.2933 1.43279 10.4075 3.37949 10.841 5.27C7.39062 5.09678 4.17598 3.46692 1.99702 0.786004C0.859855 2.74742 1.44097 5.25479 3.32502 6.516C2.64373 6.4941 1.97754 6.30964 1.38202 5.978C1.38202 5.996 1.38202 6.014 1.38202 6.032C1.38241 8.07516 2.82239 9.83508 4.82502 10.24C4.19308 10.4119 3.53022 10.4372 2.88702 10.314C3.45022 12.0613 5.06057 13.2583 6.89602 13.294C5.37585 14.4871 3.49849 15.1342 1.56602 15.131C1.22349 15.1315 0.881226 15.1118 0.541016 15.072C2.50341 16.333 4.78738 17.0024 7.12002 17C10.3653 17.0223 13.484 15.7429 15.7787 13.448C18.0734 11.1531 19.3526 8.03425 19.33 4.789C19.33 4.603 19.3257 4.418 19.317 4.234C20.1575 3.62661 20.8828 2.87415 21.459 2.012C20.676 2.35907 19.8455 2.58693 18.995 2.688Z" fill="currentColor"/>
    </g>
  </svg>

</svg>
